<mxfile host="Electron" agent="Mozilla/5.0 (Windows NT 10.0; Win64; x64) AppleWebKit/537.36 (KHTML, like Gecko) draw.io/26.0.16 Chrome/132.0.6834.196 Electron/34.2.0 Safari/537.36" version="26.0.16" pages="5">
  <diagram name="Package" id="0dHngJJVYZyibBzDHxPK">
    <mxGraphModel dx="1434" dy="844" grid="1" gridSize="10" guides="1" tooltips="1" connect="1" arrows="1" fold="1" page="1" pageScale="1" pageWidth="827" pageHeight="1169" math="0" shadow="0">
      <root>
        <mxCell id="0" />
        <mxCell id="1" parent="0" />
        <mxCell id="6-HtBexL291DEYR0XPAN-2" value="Model" style="swimlane;fontStyle=1;childLayout=stackLayout;horizontal=1;startSize=26;fillColor=#8f8f8f;horizontalStack=0;resizeParent=1;resizeParentMax=0;resizeLast=0;collapsible=1;marginBottom=0;whiteSpace=wrap;html=1;" parent="1" vertex="1">
          <mxGeometry x="344" y="200" width="140" height="130" as="geometry">
            <mxRectangle x="344" y="250" width="70" height="30" as="alternateBounds" />
          </mxGeometry>
        </mxCell>
        <mxCell id="6-HtBexL291DEYR0XPAN-3" value="+GameModel&lt;div&gt;+&lt;i&gt;UnitBase&lt;/i&gt;&lt;/div&gt;&lt;div&gt;+PlayerEnum&lt;/div&gt;&lt;div&gt;+PlayerObject&lt;/div&gt;" style="text;strokeColor=none;fillColor=none;align=left;verticalAlign=top;spacingLeft=4;spacingRight=4;overflow=hidden;rotatable=0;points=[[0,0.5],[1,0.5]];portConstraint=eastwest;whiteSpace=wrap;html=1;" parent="6-HtBexL291DEYR0XPAN-2" vertex="1">
          <mxGeometry y="26" width="140" height="104" as="geometry" />
        </mxCell>
        <mxCell id="6-HtBexL291DEYR0XPAN-6" value="View" style="swimlane;fontStyle=1;childLayout=stackLayout;horizontal=1;startSize=26;fillColor=#8f8f8f;horizontalStack=0;resizeParent=1;resizeParentMax=0;resizeLast=0;collapsible=1;marginBottom=0;whiteSpace=wrap;html=1;" parent="1" vertex="1">
          <mxGeometry x="190" y="370" width="140" height="150" as="geometry">
            <mxRectangle x="344" y="250" width="70" height="30" as="alternateBounds" />
          </mxGeometry>
        </mxCell>
        <mxCell id="6-HtBexL291DEYR0XPAN-7" value="&lt;div&gt;&lt;i&gt;&amp;lt;Scenes&amp;gt;&lt;/i&gt;&lt;/div&gt;&lt;div&gt;MenuScene&lt;/div&gt;&lt;div&gt;LobbyScene&lt;/div&gt;&lt;div&gt;GameScene&lt;/div&gt;&lt;div&gt;&lt;br&gt;&lt;/div&gt;&lt;div&gt;&lt;i&gt;&amp;lt;Scripts&amp;gt;&lt;/i&gt;&lt;/div&gt;" style="text;strokeColor=none;fillColor=none;align=left;verticalAlign=top;spacingLeft=4;spacingRight=4;overflow=hidden;rotatable=0;points=[[0,0.5],[1,0.5]];portConstraint=eastwest;whiteSpace=wrap;html=1;" parent="6-HtBexL291DEYR0XPAN-6" vertex="1">
          <mxGeometry y="26" width="140" height="124" as="geometry" />
        </mxCell>
        <mxCell id="6-HtBexL291DEYR0XPAN-8" value="Controller" style="swimlane;fontStyle=1;childLayout=stackLayout;horizontal=1;startSize=26;fillColor=#8f8f8f;horizontalStack=0;resizeParent=1;resizeParentMax=0;resizeLast=0;collapsible=1;marginBottom=0;whiteSpace=wrap;html=1;" parent="1" vertex="1">
          <mxGeometry x="495" y="384" width="140" height="100" as="geometry">
            <mxRectangle x="344" y="250" width="70" height="30" as="alternateBounds" />
          </mxGeometry>
        </mxCell>
        <mxCell id="6-HtBexL291DEYR0XPAN-9" value="+ MainMenuController&lt;div&gt;+ LobbyController&lt;/div&gt;&lt;div&gt;+ GameController&lt;/div&gt;&lt;div&gt;+ ProfileController&lt;/div&gt;" style="text;strokeColor=none;fillColor=none;align=left;verticalAlign=top;spacingLeft=4;spacingRight=4;overflow=hidden;rotatable=0;points=[[0,0.5],[1,0.5]];portConstraint=eastwest;whiteSpace=wrap;html=1;" parent="6-HtBexL291DEYR0XPAN-8" vertex="1">
          <mxGeometry y="26" width="140" height="74" as="geometry" />
        </mxCell>
        <mxCell id="6-HtBexL291DEYR0XPAN-12" value="&amp;lt;import&amp;gt;" style="html=1;verticalAlign=bottom;endArrow=open;dashed=1;endSize=8;curved=0;rounded=0;exitX=1;exitY=0.25;exitDx=0;exitDy=0;entryX=0;entryY=0.25;entryDx=0;entryDy=0;" parent="1" source="6-HtBexL291DEYR0XPAN-6" target="6-HtBexL291DEYR0XPAN-8" edge="1">
          <mxGeometry relative="1" as="geometry">
            <mxPoint x="370" y="530" as="sourcePoint" />
            <mxPoint x="290" y="530" as="targetPoint" />
          </mxGeometry>
        </mxCell>
        <mxCell id="6-HtBexL291DEYR0XPAN-13" value="&amp;lt;import&amp;gt;" style="html=1;verticalAlign=bottom;endArrow=open;dashed=1;endSize=8;curved=0;rounded=0;entryX=1;entryY=0.5;entryDx=0;entryDy=0;exitX=0.5;exitY=0;exitDx=0;exitDy=0;" parent="1" source="6-HtBexL291DEYR0XPAN-8" target="6-HtBexL291DEYR0XPAN-3" edge="1">
          <mxGeometry relative="1" as="geometry">
            <mxPoint x="630" y="310" as="sourcePoint" />
            <mxPoint x="550" y="310" as="targetPoint" />
            <Array as="points">
              <mxPoint x="565" y="278" />
            </Array>
          </mxGeometry>
        </mxCell>
      </root>
    </mxGraphModel>
  </diagram>
  <diagram id="ghndjxc0Ky3cyNBAVZ8P" name="UseCase_GameCreation">
    <mxGraphModel dx="1434" dy="844" grid="1" gridSize="10" guides="1" tooltips="1" connect="1" arrows="1" fold="1" page="1" pageScale="1" pageWidth="827" pageHeight="1169" math="0" shadow="0">
      <root>
        <mxCell id="0" />
        <mxCell id="1" parent="0" />
        <mxCell id="h5dJP0l7zGMlZSQiE0ZP-4" value="Frakció választása" style="ellipse;whiteSpace=wrap;html=1;fontFamily=Lucida Console;fontSize=12;textShadow=0;gradientColor=none;fillColor=#8f8f8f;spacingLeft=5;spacingRight=5;" parent="1" vertex="1">
          <mxGeometry x="340" y="360" width="120" height="80" as="geometry" />
        </mxCell>
        <mxCell id="h5dJP0l7zGMlZSQiE0ZP-1" value="Host" style="shape=umlActor;verticalLabelPosition=bottom;verticalAlign=top;html=1;outlineConnect=0;gradientColor=none;fillColor=#8f8f8f;textShadow=1;labelBorderColor=none;labelBackgroundColor=none;" parent="1" vertex="1">
          <mxGeometry x="20" y="300" width="120" height="200" as="geometry" />
        </mxCell>
        <mxCell id="h5dJP0l7zGMlZSQiE0ZP-2" value="Új játék létrehozása" style="ellipse;whiteSpace=wrap;html=1;fontFamily=Lucida Console;fontSize=12;textShadow=0;gradientColor=none;fillColor=#8f8f8f;spacingLeft=5;spacingRight=5;" parent="1" vertex="1">
          <mxGeometry x="190" y="220" width="120" height="80" as="geometry" />
        </mxCell>
        <mxCell id="h5dJP0l7zGMlZSQiE0ZP-3" value="Csatlakozás játékhoz" style="ellipse;whiteSpace=wrap;html=1;fontFamily=Lucida Console;fontSize=12;textShadow=0;gradientColor=none;fillColor=#8f8f8f;spacingLeft=5;spacingRight=5;" parent="1" vertex="1">
          <mxGeometry x="490" y="220" width="120" height="80" as="geometry" />
        </mxCell>
        <mxCell id="h5dJP0l7zGMlZSQiE0ZP-5" value="" style="endArrow=none;html=1;rounded=0;endFill=0;entryX=0;entryY=0.5;entryDx=0;entryDy=0;" parent="1" source="h5dJP0l7zGMlZSQiE0ZP-1" target="h5dJP0l7zGMlZSQiE0ZP-2" edge="1">
          <mxGeometry width="50" height="50" relative="1" as="geometry">
            <mxPoint x="190" y="260" as="sourcePoint" />
            <mxPoint x="240" y="210" as="targetPoint" />
          </mxGeometry>
        </mxCell>
        <mxCell id="h5dJP0l7zGMlZSQiE0ZP-6" value="" style="endArrow=classic;dashed=1;html=1;dashPattern=1 3;strokeWidth=2;rounded=0;exitX=1;exitY=1;exitDx=0;exitDy=0;entryX=0;entryY=0;entryDx=0;entryDy=0;endFill=1;" parent="1" source="h5dJP0l7zGMlZSQiE0ZP-2" target="h5dJP0l7zGMlZSQiE0ZP-4" edge="1">
          <mxGeometry width="50" height="50" relative="1" as="geometry">
            <mxPoint x="150" y="200" as="sourcePoint" />
            <mxPoint x="200" y="150" as="targetPoint" />
            <Array as="points" />
          </mxGeometry>
        </mxCell>
        <mxCell id="h5dJP0l7zGMlZSQiE0ZP-7" value="" style="endArrow=classic;dashed=1;html=1;dashPattern=1 3;strokeWidth=2;rounded=0;exitX=0;exitY=1;exitDx=0;exitDy=0;entryX=1;entryY=0;entryDx=0;entryDy=0;endFill=1;" parent="1" source="h5dJP0l7zGMlZSQiE0ZP-3" target="h5dJP0l7zGMlZSQiE0ZP-4" edge="1">
          <mxGeometry width="50" height="50" relative="1" as="geometry">
            <mxPoint x="180" y="230" as="sourcePoint" />
            <mxPoint x="270" y="180" as="targetPoint" />
            <Array as="points" />
          </mxGeometry>
        </mxCell>
        <mxCell id="h5dJP0l7zGMlZSQiE0ZP-8" value="&amp;lt;&amp;lt;precedes&amp;gt;&amp;gt;" style="text;html=1;align=center;verticalAlign=middle;whiteSpace=wrap;rounded=0;rotation=45;" parent="1" vertex="1">
          <mxGeometry x="273" y="320" width="67" height="26" as="geometry" />
        </mxCell>
        <mxCell id="h5dJP0l7zGMlZSQiE0ZP-9" value="" style="endArrow=none;html=1;rounded=0;endFill=0;entryX=0;entryY=0.5;entryDx=0;entryDy=0;" parent="1" source="h5dJP0l7zGMlZSQiE0ZP-1" target="h5dJP0l7zGMlZSQiE0ZP-4" edge="1">
          <mxGeometry width="50" height="50" relative="1" as="geometry">
            <mxPoint x="270" y="310" as="sourcePoint" />
            <mxPoint x="240" y="270" as="targetPoint" />
          </mxGeometry>
        </mxCell>
        <mxCell id="h5dJP0l7zGMlZSQiE0ZP-10" value="&amp;lt;&amp;lt;precedes&amp;gt;&amp;gt;" style="text;html=1;align=center;verticalAlign=middle;whiteSpace=wrap;rounded=0;rotation=-45;" parent="1" vertex="1">
          <mxGeometry x="470" y="320" width="62" height="27" as="geometry" />
        </mxCell>
        <mxCell id="h5dJP0l7zGMlZSQiE0ZP-11" value="Kliens" style="shape=umlActor;verticalLabelPosition=bottom;verticalAlign=top;html=1;outlineConnect=0;gradientColor=none;fillColor=#8f8f8f;textShadow=1;labelBorderColor=none;labelBackgroundColor=none;" parent="1" vertex="1">
          <mxGeometry x="640" y="300" width="120" height="200" as="geometry" />
        </mxCell>
        <mxCell id="h5dJP0l7zGMlZSQiE0ZP-12" value="" style="endArrow=none;html=1;rounded=0;endFill=0;entryX=1;entryY=0.5;entryDx=0;entryDy=0;" parent="1" source="h5dJP0l7zGMlZSQiE0ZP-11" target="h5dJP0l7zGMlZSQiE0ZP-4" edge="1">
          <mxGeometry width="50" height="50" relative="1" as="geometry">
            <mxPoint x="150" y="410" as="sourcePoint" />
            <mxPoint x="350" y="410" as="targetPoint" />
          </mxGeometry>
        </mxCell>
        <mxCell id="h5dJP0l7zGMlZSQiE0ZP-13" value="" style="endArrow=none;html=1;rounded=0;endFill=0;entryX=1;entryY=0.5;entryDx=0;entryDy=0;" parent="1" source="h5dJP0l7zGMlZSQiE0ZP-11" target="h5dJP0l7zGMlZSQiE0ZP-3" edge="1">
          <mxGeometry width="50" height="50" relative="1" as="geometry">
            <mxPoint x="150" y="355" as="sourcePoint" />
            <mxPoint x="200" y="310" as="targetPoint" />
          </mxGeometry>
        </mxCell>
        <mxCell id="h5dJP0l7zGMlZSQiE0ZP-14" value="" style="endArrow=classic;dashed=1;html=1;dashPattern=1 3;strokeWidth=2;rounded=0;exitX=1;exitY=0.5;exitDx=0;exitDy=0;entryX=0;entryY=0.5;entryDx=0;entryDy=0;endFill=1;" parent="1" source="h5dJP0l7zGMlZSQiE0ZP-2" target="h5dJP0l7zGMlZSQiE0ZP-3" edge="1">
          <mxGeometry width="50" height="50" relative="1" as="geometry">
            <mxPoint x="518" y="338" as="sourcePoint" />
            <mxPoint x="452" y="382" as="targetPoint" />
            <Array as="points" />
          </mxGeometry>
        </mxCell>
        <mxCell id="h5dJP0l7zGMlZSQiE0ZP-15" value="&amp;lt;&amp;lt;precedes&amp;gt;&amp;gt;" style="text;html=1;align=center;verticalAlign=middle;whiteSpace=wrap;rounded=0;rotation=0;" parent="1" vertex="1">
          <mxGeometry x="355" y="260" width="90" height="30" as="geometry" />
        </mxCell>
        <mxCell id="h5dJP0l7zGMlZSQiE0ZP-16" value="Játék indítása" style="ellipse;whiteSpace=wrap;html=1;fontFamily=Lucida Console;fontSize=12;textShadow=0;gradientColor=none;fillColor=#8f8f8f;spacingLeft=5;spacingRight=5;" parent="1" vertex="1">
          <mxGeometry x="340" y="560" width="120" height="80" as="geometry" />
        </mxCell>
        <mxCell id="h5dJP0l7zGMlZSQiE0ZP-17" value="" style="endArrow=classic;dashed=1;html=1;dashPattern=1 3;strokeWidth=2;rounded=0;entryX=0.5;entryY=0;entryDx=0;entryDy=0;endFill=1;" parent="1" source="h5dJP0l7zGMlZSQiE0ZP-4" target="h5dJP0l7zGMlZSQiE0ZP-16" edge="1">
          <mxGeometry width="50" height="50" relative="1" as="geometry">
            <mxPoint x="400" y="420" as="sourcePoint" />
            <mxPoint x="500" y="310" as="targetPoint" />
            <Array as="points" />
          </mxGeometry>
        </mxCell>
        <mxCell id="h5dJP0l7zGMlZSQiE0ZP-18" value="&amp;lt;&amp;lt;precedes&amp;gt;&amp;gt;" style="text;html=1;align=center;verticalAlign=middle;whiteSpace=wrap;rounded=0;rotation=0;" parent="1" vertex="1">
          <mxGeometry x="310" y="470" width="90" height="30" as="geometry" />
        </mxCell>
        <mxCell id="h5dJP0l7zGMlZSQiE0ZP-19" value="" style="endArrow=none;html=1;rounded=0;endFill=0;entryX=0;entryY=0.5;entryDx=0;entryDy=0;" parent="1" source="h5dJP0l7zGMlZSQiE0ZP-1" target="h5dJP0l7zGMlZSQiE0ZP-16" edge="1">
          <mxGeometry width="50" height="50" relative="1" as="geometry">
            <mxPoint x="150" y="410" as="sourcePoint" />
            <mxPoint x="350" y="410" as="targetPoint" />
          </mxGeometry>
        </mxCell>
        <mxCell id="h5dJP0l7zGMlZSQiE0ZP-20" value="Készenlét jelzése" style="ellipse;whiteSpace=wrap;html=1;fontFamily=Lucida Console;fontSize=12;textShadow=0;gradientColor=none;fillColor=#8f8f8f;spacingLeft=5;spacingRight=5;" parent="1" vertex="1">
          <mxGeometry x="500" y="440" width="120" height="80" as="geometry" />
        </mxCell>
        <mxCell id="h5dJP0l7zGMlZSQiE0ZP-21" value="" style="endArrow=classic;dashed=1;html=1;dashPattern=1 3;strokeWidth=2;rounded=0;exitX=1;exitY=1;exitDx=0;exitDy=0;entryX=0;entryY=0.5;entryDx=0;entryDy=0;endFill=1;" parent="1" source="h5dJP0l7zGMlZSQiE0ZP-4" target="h5dJP0l7zGMlZSQiE0ZP-20" edge="1">
          <mxGeometry width="50" height="50" relative="1" as="geometry">
            <mxPoint x="518" y="298" as="sourcePoint" />
            <mxPoint x="452" y="362" as="targetPoint" />
            <Array as="points" />
          </mxGeometry>
        </mxCell>
        <mxCell id="h5dJP0l7zGMlZSQiE0ZP-22" value="&amp;lt;&amp;lt;precedes&amp;gt;&amp;gt;" style="text;html=1;align=center;verticalAlign=middle;whiteSpace=wrap;rounded=0;rotation=0;" parent="1" vertex="1">
          <mxGeometry x="460" y="418" width="62" height="27" as="geometry" />
        </mxCell>
        <mxCell id="h5dJP0l7zGMlZSQiE0ZP-23" value="" style="endArrow=classic;dashed=1;html=1;dashPattern=1 3;strokeWidth=2;rounded=0;exitX=0;exitY=1;exitDx=0;exitDy=0;entryX=1.011;entryY=0.449;entryDx=0;entryDy=0;endFill=1;entryPerimeter=0;" parent="1" source="h5dJP0l7zGMlZSQiE0ZP-20" target="h5dJP0l7zGMlZSQiE0ZP-16" edge="1">
          <mxGeometry width="50" height="50" relative="1" as="geometry">
            <mxPoint x="452" y="418" as="sourcePoint" />
            <mxPoint x="510" y="470" as="targetPoint" />
            <Array as="points" />
          </mxGeometry>
        </mxCell>
        <mxCell id="h5dJP0l7zGMlZSQiE0ZP-24" value="&amp;lt;&amp;lt;precedes&amp;gt;&amp;gt;" style="text;html=1;align=center;verticalAlign=middle;whiteSpace=wrap;rounded=0;rotation=0;" parent="1" vertex="1">
          <mxGeometry x="500" y="540" width="62" height="27" as="geometry" />
        </mxCell>
      </root>
    </mxGraphModel>
  </diagram>
  <diagram id="-Z2dbm4xBW79JA8BGIjW" name="UseCase_Ingame">
    <mxGraphModel dx="1418" dy="828" grid="1" gridSize="10" guides="1" tooltips="1" connect="1" arrows="1" fold="1" page="1" pageScale="1" pageWidth="827" pageHeight="1169" math="0" shadow="0">
      <root>
        <mxCell id="0" />
        <mxCell id="1" parent="0" />
        <mxCell id="WeJMKDSTsm7TnoBJPsjE-24" value="" style="rounded=0;whiteSpace=wrap;html=1;fillColor=none;" parent="1" vertex="1">
          <mxGeometry x="300" y="280" width="140" height="360" as="geometry" />
        </mxCell>
        <mxCell id="WeJMKDSTsm7TnoBJPsjE-3" value="Játékos" style="shape=umlActor;verticalLabelPosition=bottom;verticalAlign=top;html=1;outlineConnect=0;gradientColor=none;fillColor=#8f8f8f;textShadow=1;labelBorderColor=none;labelBackgroundColor=none;" parent="1" vertex="1">
          <mxGeometry x="114" y="360" width="120" height="200" as="geometry" />
        </mxCell>
        <mxCell id="WeJMKDSTsm7TnoBJPsjE-5" value="Csapatok / egyések mozgatása" style="ellipse;whiteSpace=wrap;html=1;fontFamily=Lucida Console;fontSize=12;textShadow=0;gradientColor=none;fillColor=#8f8f8f;spacingLeft=5;spacingRight=5;" parent="1" vertex="1">
          <mxGeometry x="310" y="420" width="120" height="80" as="geometry" />
        </mxCell>
        <mxCell id="WeJMKDSTsm7TnoBJPsjE-7" value="Egység megtámadása" style="ellipse;whiteSpace=wrap;html=1;fontFamily=Lucida Console;fontSize=12;textShadow=0;gradientColor=none;fillColor=#8f8f8f;spacingLeft=5;spacingRight=5;" parent="1" vertex="1">
          <mxGeometry x="310" y="545" width="120" height="80" as="geometry" />
        </mxCell>
        <mxCell id="WeJMKDSTsm7TnoBJPsjE-8" value="" style="endArrow=none;html=1;rounded=0;entryX=0;entryY=0.5;entryDx=0;entryDy=0;" parent="1" source="WeJMKDSTsm7TnoBJPsjE-3" target="WeJMKDSTsm7TnoBJPsjE-5" edge="1">
          <mxGeometry width="50" height="50" relative="1" as="geometry">
            <mxPoint x="264" y="350" as="sourcePoint" />
            <mxPoint x="284" y="370" as="targetPoint" />
          </mxGeometry>
        </mxCell>
        <mxCell id="WeJMKDSTsm7TnoBJPsjE-10" value="" style="endArrow=none;html=1;rounded=0;entryX=0;entryY=0.5;entryDx=0;entryDy=0;" parent="1" source="WeJMKDSTsm7TnoBJPsjE-3" target="WeJMKDSTsm7TnoBJPsjE-7" edge="1">
          <mxGeometry width="50" height="50" relative="1" as="geometry">
            <mxPoint x="244" y="461" as="sourcePoint" />
            <mxPoint x="324" y="450" as="targetPoint" />
          </mxGeometry>
        </mxCell>
        <mxCell id="WeJMKDSTsm7TnoBJPsjE-13" value="Pont elfoglalása" style="ellipse;whiteSpace=wrap;html=1;fontFamily=Lucida Console;fontSize=12;textShadow=0;gradientColor=none;fillColor=#8f8f8f;spacingLeft=5;spacingRight=5;" parent="1" vertex="1">
          <mxGeometry x="554" y="420" width="120" height="80" as="geometry" />
        </mxCell>
        <mxCell id="WeJMKDSTsm7TnoBJPsjE-14" value="" style="endArrow=none;dashed=1;html=1;rounded=0;exitX=0;exitY=0.5;exitDx=0;exitDy=0;entryX=1;entryY=0.5;entryDx=0;entryDy=0;startArrow=classic;startFill=1;" parent="1" source="WeJMKDSTsm7TnoBJPsjE-13" target="WeJMKDSTsm7TnoBJPsjE-5" edge="1">
          <mxGeometry width="50" height="50" relative="1" as="geometry">
            <mxPoint x="424" y="310" as="sourcePoint" />
            <mxPoint x="424" y="260" as="targetPoint" />
          </mxGeometry>
        </mxCell>
        <mxCell id="WeJMKDSTsm7TnoBJPsjE-17" value="Játék vége" style="ellipse;whiteSpace=wrap;html=1;fontFamily=Lucida Console;fontSize=12;textShadow=0;gradientColor=none;fillColor=#8f8f8f;spacingLeft=5;spacingRight=5;" parent="1" vertex="1">
          <mxGeometry x="554" y="545" width="120" height="80" as="geometry" />
        </mxCell>
        <mxCell id="WeJMKDSTsm7TnoBJPsjE-18" value="" style="endArrow=none;dashed=1;html=1;rounded=0;exitX=0;exitY=0.5;exitDx=0;exitDy=0;entryX=1;entryY=0.5;entryDx=0;entryDy=0;startArrow=classic;startFill=1;" parent="1" source="WeJMKDSTsm7TnoBJPsjE-17" target="WeJMKDSTsm7TnoBJPsjE-7" edge="1">
          <mxGeometry width="50" height="50" relative="1" as="geometry">
            <mxPoint x="564" y="410" as="sourcePoint" />
            <mxPoint x="444" y="370" as="targetPoint" />
          </mxGeometry>
        </mxCell>
        <mxCell id="WeJMKDSTsm7TnoBJPsjE-19" value="&amp;lt;&amp;lt;invokes&amp;gt;&amp;gt;" style="text;html=1;align=center;verticalAlign=middle;whiteSpace=wrap;rounded=0;" parent="1" vertex="1">
          <mxGeometry x="444" y="545" width="110" height="30" as="geometry" />
        </mxCell>
        <mxCell id="WeJMKDSTsm7TnoBJPsjE-22" value="&amp;lt;&amp;lt;invokes&lt;span style=&quot;background-color: initial;&quot;&gt;&amp;gt;&amp;gt;&lt;/span&gt;" style="text;html=1;align=center;verticalAlign=middle;whiteSpace=wrap;rounded=0;" parent="1" vertex="1">
          <mxGeometry x="440" y="430" width="110" height="30" as="geometry" />
        </mxCell>
        <mxCell id="WeJMKDSTsm7TnoBJPsjE-25" value="Fázisváltás" style="ellipse;whiteSpace=wrap;html=1;fontFamily=Lucida Console;fontSize=12;textShadow=0;gradientColor=none;fillColor=#8f8f8f;spacingLeft=5;spacingRight=5;" parent="1" vertex="1">
          <mxGeometry x="310" y="170" width="120" height="80" as="geometry" />
        </mxCell>
        <mxCell id="WeJMKDSTsm7TnoBJPsjE-26" value="Körváltás" style="ellipse;whiteSpace=wrap;html=1;fontFamily=Lucida Console;fontSize=12;textShadow=0;gradientColor=none;fillColor=#8f8f8f;spacingLeft=5;spacingRight=5;" parent="1" vertex="1">
          <mxGeometry x="554" y="170" width="120" height="80" as="geometry" />
        </mxCell>
        <mxCell id="WeJMKDSTsm7TnoBJPsjE-27" value="Új egység elhelyezése" style="ellipse;whiteSpace=wrap;html=1;fontFamily=Lucida Console;fontSize=12;textShadow=0;gradientColor=none;fillColor=#8f8f8f;spacingLeft=5;spacingRight=5;" parent="1" vertex="1">
          <mxGeometry x="310" y="300" width="120" height="80" as="geometry" />
        </mxCell>
        <mxCell id="WeJMKDSTsm7TnoBJPsjE-28" value="" style="endArrow=none;dashed=1;html=1;rounded=0;exitX=0.5;exitY=1;exitDx=0;exitDy=0;entryX=0.5;entryY=0;entryDx=0;entryDy=0;startArrow=classic;startFill=1;" parent="1" source="WeJMKDSTsm7TnoBJPsjE-25" target="WeJMKDSTsm7TnoBJPsjE-24" edge="1">
          <mxGeometry width="50" height="50" relative="1" as="geometry">
            <mxPoint x="564" y="450" as="sourcePoint" />
            <mxPoint x="440" y="450" as="targetPoint" />
          </mxGeometry>
        </mxCell>
        <mxCell id="WeJMKDSTsm7TnoBJPsjE-29" value="&amp;lt;&amp;lt;precedes&lt;span style=&quot;background-color: initial;&quot;&gt;&amp;gt;&amp;gt;&lt;/span&gt;" style="text;html=1;align=center;verticalAlign=middle;whiteSpace=wrap;rounded=0;" parent="1" vertex="1">
          <mxGeometry x="364" y="250" width="110" height="30" as="geometry" />
        </mxCell>
        <mxCell id="WeJMKDSTsm7TnoBJPsjE-30" value="&amp;lt;&amp;lt;invokes&lt;span style=&quot;background-color: initial;&quot;&gt;&amp;gt;&amp;gt;&lt;/span&gt;" style="text;html=1;align=center;verticalAlign=middle;whiteSpace=wrap;rounded=0;" parent="1" vertex="1">
          <mxGeometry x="450" y="210" width="110" height="30" as="geometry" />
        </mxCell>
        <mxCell id="WeJMKDSTsm7TnoBJPsjE-31" value="" style="endArrow=none;dashed=1;html=1;rounded=0;entryX=1;entryY=0.5;entryDx=0;entryDy=0;startArrow=classic;startFill=1;exitX=0;exitY=0.5;exitDx=0;exitDy=0;" parent="1" source="WeJMKDSTsm7TnoBJPsjE-26" target="WeJMKDSTsm7TnoBJPsjE-25" edge="1">
          <mxGeometry width="50" height="50" relative="1" as="geometry">
            <mxPoint x="590" y="150" as="sourcePoint" />
            <mxPoint x="440" y="450" as="targetPoint" />
          </mxGeometry>
        </mxCell>
        <mxCell id="WeJMKDSTsm7TnoBJPsjE-32" value="Játék feladása" style="ellipse;whiteSpace=wrap;html=1;fontFamily=Lucida Console;fontSize=12;textShadow=0;gradientColor=none;fillColor=#8f8f8f;spacingLeft=5;spacingRight=5;" parent="1" vertex="1">
          <mxGeometry x="310" y="670" width="120" height="80" as="geometry" />
        </mxCell>
        <mxCell id="WeJMKDSTsm7TnoBJPsjE-33" value="" style="endArrow=none;html=1;rounded=0;exitX=0;exitY=0.5;exitDx=0;exitDy=0;" parent="1" source="WeJMKDSTsm7TnoBJPsjE-32" target="WeJMKDSTsm7TnoBJPsjE-3" edge="1">
          <mxGeometry width="50" height="50" relative="1" as="geometry">
            <mxPoint x="244" y="525" as="sourcePoint" />
            <mxPoint x="320" y="595" as="targetPoint" />
          </mxGeometry>
        </mxCell>
        <mxCell id="WeJMKDSTsm7TnoBJPsjE-34" value="" style="endArrow=none;html=1;rounded=0;entryX=0;entryY=0.5;entryDx=0;entryDy=0;" parent="1" source="WeJMKDSTsm7TnoBJPsjE-3" target="WeJMKDSTsm7TnoBJPsjE-27" edge="1">
          <mxGeometry width="50" height="50" relative="1" as="geometry">
            <mxPoint x="244" y="470" as="sourcePoint" />
            <mxPoint x="320" y="470" as="targetPoint" />
          </mxGeometry>
        </mxCell>
        <mxCell id="WeJMKDSTsm7TnoBJPsjE-35" value="" style="endArrow=none;dashed=1;html=1;rounded=0;exitX=0.5;exitY=1;exitDx=0;exitDy=0;entryX=1;entryY=0.5;entryDx=0;entryDy=0;startArrow=classic;startFill=1;" parent="1" source="WeJMKDSTsm7TnoBJPsjE-17" target="WeJMKDSTsm7TnoBJPsjE-32" edge="1">
          <mxGeometry width="50" height="50" relative="1" as="geometry">
            <mxPoint x="564" y="595" as="sourcePoint" />
            <mxPoint x="440" y="595" as="targetPoint" />
            <Array as="points">
              <mxPoint x="614" y="710" />
            </Array>
          </mxGeometry>
        </mxCell>
        <mxCell id="WeJMKDSTsm7TnoBJPsjE-36" value="&amp;lt;&amp;lt;invokes&amp;gt;&amp;gt;" style="text;html=1;align=center;verticalAlign=middle;whiteSpace=wrap;rounded=0;" parent="1" vertex="1">
          <mxGeometry x="500" y="680" width="110" height="30" as="geometry" />
        </mxCell>
      </root>
    </mxGraphModel>
  </diagram>
  <diagram id="AvV_j6Z6aPbJ1H3j9rLW" name="Controllers">
    <mxGraphModel dx="1195" dy="703" grid="1" gridSize="10" guides="1" tooltips="1" connect="1" arrows="1" fold="1" page="1" pageScale="1" pageWidth="827" pageHeight="1169" math="0" shadow="0">
      <root>
        <mxCell id="0" />
        <mxCell id="1" parent="0" />
        <mxCell id="kG6my6M07rs6njIQ6F8--1" value="&lt;div&gt;&lt;span style=&quot;font-weight: normal;&quot;&gt;&lt;i&gt;&amp;lt;&amp;lt;abstract&amp;gt;&amp;gt;&lt;/i&gt;&lt;/span&gt;&lt;/div&gt;BaseController&amp;lt;T&amp;gt;" style="swimlane;fontStyle=1;align=center;verticalAlign=top;childLayout=stackLayout;horizontal=1;startSize=40;horizontalStack=0;resizeParent=1;resizeParentMax=0;resizeLast=0;collapsible=1;marginBottom=0;whiteSpace=wrap;html=1;fillColor=light-dark(#4472c4, #8f8f8f);" vertex="1" parent="1">
          <mxGeometry x="290" y="40" width="220" height="90" as="geometry" />
        </mxCell>
        <mxCell id="kG6my6M07rs6njIQ6F8--2" value="# BaseController()&lt;div&gt;# Instance { static, getter } : T&lt;/div&gt;" style="text;strokeColor=none;fillColor=none;align=left;verticalAlign=top;spacingLeft=4;spacingRight=4;overflow=hidden;rotatable=0;points=[[0,0.5],[1,0.5]];portConstraint=eastwest;whiteSpace=wrap;html=1;" vertex="1" parent="kG6my6M07rs6njIQ6F8--1">
          <mxGeometry y="40" width="220" height="50" as="geometry" />
        </mxCell>
        <mxCell id="mFlbzCgezlxG9buVJFyA-5" value="&lt;div&gt;&lt;span style=&quot;background-color: initial;&quot;&gt;GameController&lt;/span&gt;&lt;br&gt;&lt;/div&gt;" style="swimlane;fontStyle=1;align=center;verticalAlign=top;childLayout=stackLayout;horizontal=1;startSize=30;horizontalStack=0;resizeParent=1;resizeParentMax=0;resizeLast=0;collapsible=1;marginBottom=0;whiteSpace=wrap;html=1;fillColor=light-dark(#4472c4, #8f8f8f);" vertex="1" parent="1">
          <mxGeometry x="250" y="190" width="250" height="90" as="geometry" />
        </mxCell>
        <mxCell id="mFlbzCgezlxG9buVJFyA-6" value="+ field: type" style="text;strokeColor=none;fillColor=none;align=left;verticalAlign=top;spacingLeft=4;spacingRight=4;overflow=hidden;rotatable=0;points=[[0,0.5],[1,0.5]];portConstraint=eastwest;whiteSpace=wrap;html=1;" vertex="1" parent="mFlbzCgezlxG9buVJFyA-5">
          <mxGeometry y="30" width="250" height="26" as="geometry" />
        </mxCell>
        <mxCell id="mFlbzCgezlxG9buVJFyA-7" value="" style="line;strokeWidth=1;fillColor=none;align=left;verticalAlign=middle;spacingTop=-1;spacingLeft=3;spacingRight=3;rotatable=0;labelPosition=right;points=[];portConstraint=eastwest;strokeColor=inherit;" vertex="1" parent="mFlbzCgezlxG9buVJFyA-5">
          <mxGeometry y="56" width="250" height="8" as="geometry" />
        </mxCell>
        <mxCell id="mFlbzCgezlxG9buVJFyA-8" value="+ method(type): type" style="text;strokeColor=none;fillColor=none;align=left;verticalAlign=top;spacingLeft=4;spacingRight=4;overflow=hidden;rotatable=0;points=[[0,0.5],[1,0.5]];portConstraint=eastwest;whiteSpace=wrap;html=1;" vertex="1" parent="mFlbzCgezlxG9buVJFyA-5">
          <mxGeometry y="64" width="250" height="26" as="geometry" />
        </mxCell>
        <mxCell id="mFlbzCgezlxG9buVJFyA-9" value="" style="endArrow=block;html=1;rounded=0;exitX=0.5;exitY=0;exitDx=0;exitDy=0;endFill=0;endSize=12;" edge="1" parent="1" source="mFlbzCgezlxG9buVJFyA-5">
          <mxGeometry width="50" height="50" relative="1" as="geometry">
            <mxPoint x="180" y="90" as="sourcePoint" />
            <mxPoint x="375" y="140" as="targetPoint" />
            <Array as="points" />
          </mxGeometry>
        </mxCell>
        <mxCell id="mFlbzCgezlxG9buVJFyA-10" value="&lt;div&gt;&lt;span style=&quot;font-weight: normal;&quot;&gt;&lt;i&gt;&amp;lt;&amp;lt;abstract&amp;gt;&amp;gt;&lt;/i&gt;&lt;/span&gt;&lt;/div&gt;MenuControllerBase&amp;lt;T&amp;gt;" style="swimlane;fontStyle=1;align=center;verticalAlign=top;childLayout=stackLayout;horizontal=1;startSize=40;horizontalStack=0;resizeParent=1;resizeParentMax=0;resizeLast=0;collapsible=1;marginBottom=0;whiteSpace=wrap;html=1;fillColor=light-dark(#4472c4, #8f8f8f);" vertex="1" parent="1">
          <mxGeometry x="513" y="190" width="295" height="130" as="geometry" />
        </mxCell>
        <mxCell id="mFlbzCgezlxG9buVJFyA-11" value="# menuParent : GameObject&lt;div&gt;# screenStack : Stack&amp;lt;ScreenType&amp;gt; { readonly }&lt;/div&gt;" style="text;strokeColor=none;fillColor=none;align=left;verticalAlign=top;spacingLeft=4;spacingRight=4;overflow=hidden;rotatable=0;points=[[0,0.5],[1,0.5]];portConstraint=eastwest;whiteSpace=wrap;html=1;" vertex="1" parent="mFlbzCgezlxG9buVJFyA-10">
          <mxGeometry y="40" width="295" height="40" as="geometry" />
        </mxCell>
        <mxCell id="mFlbzCgezlxG9buVJFyA-12" value="" style="line;strokeWidth=1;fillColor=none;align=left;verticalAlign=middle;spacingTop=-1;spacingLeft=3;spacingRight=3;rotatable=0;labelPosition=right;points=[];portConstraint=eastwest;strokeColor=inherit;" vertex="1" parent="mFlbzCgezlxG9buVJFyA-10">
          <mxGeometry y="80" width="295" height="8" as="geometry" />
        </mxCell>
        <mxCell id="mFlbzCgezlxG9buVJFyA-13" value="# ChangeScreen(type : ScreenType)&lt;div&gt;+ Back()&lt;/div&gt;" style="text;strokeColor=none;fillColor=none;align=left;verticalAlign=top;spacingLeft=4;spacingRight=4;overflow=hidden;rotatable=0;points=[[0,0.5],[1,0.5]];portConstraint=eastwest;whiteSpace=wrap;html=1;" vertex="1" parent="mFlbzCgezlxG9buVJFyA-10">
          <mxGeometry y="88" width="295" height="42" as="geometry" />
        </mxCell>
        <mxCell id="mFlbzCgezlxG9buVJFyA-14" value="" style="endArrow=block;html=1;rounded=0;exitX=0.5;exitY=0;exitDx=0;exitDy=0;endFill=0;endSize=12;entryX=1;entryY=0.25;entryDx=0;entryDy=0;" edge="1" parent="1" source="mFlbzCgezlxG9buVJFyA-10" target="kG6my6M07rs6njIQ6F8--1">
          <mxGeometry width="50" height="50" relative="1" as="geometry">
            <mxPoint x="180" y="300" as="sourcePoint" />
            <mxPoint x="570" y="110" as="targetPoint" />
            <Array as="points">
              <mxPoint x="660" y="63" />
            </Array>
          </mxGeometry>
        </mxCell>
        <mxCell id="mFlbzCgezlxG9buVJFyA-16" value="&lt;div&gt;&lt;span style=&quot;background-color: initial;&quot;&gt;ProfileController&lt;/span&gt;&lt;br&gt;&lt;/div&gt;" style="swimlane;fontStyle=1;align=center;verticalAlign=top;childLayout=stackLayout;horizontal=1;startSize=30;horizontalStack=0;resizeParent=1;resizeParentMax=0;resizeLast=0;collapsible=1;marginBottom=0;whiteSpace=wrap;html=1;fillColor=light-dark(#4472c4, #8f8f8f);" vertex="1" parent="1">
          <mxGeometry x="20" y="190" width="200" height="260" as="geometry" />
        </mxCell>
        <mxCell id="mFlbzCgezlxG9buVJFyA-17" value="- profileDataManager : IDataManager&amp;lt;Profile&amp;gt;&lt;div&gt;&lt;span style=&quot;background-color: transparent; color: light-dark(rgb(0, 0, 0), rgb(255, 255, 255));&quot;&gt;- userProfile : Profile&lt;/span&gt;&lt;/div&gt;&lt;div&gt;&lt;span style=&quot;background-color: transparent; color: light-dark(rgb(0, 0, 0), rgb(255, 255, 255));&quot;&gt;&lt;br&gt;&lt;/span&gt;&lt;/div&gt;&lt;div&gt;&lt;i&gt;&amp;lt;property&amp;gt;&lt;/i&gt;&lt;/div&gt;&lt;div&gt;+ DisplayName : string&lt;/div&gt;&lt;div&gt;+ GamesPlayed : int { &lt;i&gt;readonly &lt;/i&gt;}&lt;/div&gt;&lt;div&gt;+ GamesWon : int { &lt;i&gt;readonly&lt;/i&gt; }&lt;/div&gt;&lt;div&gt;&lt;br&gt;&lt;/div&gt;&lt;div&gt;&lt;i&gt;&amp;lt;event&amp;gt;&lt;/i&gt;&lt;/div&gt;&lt;div&gt;+ ProfileUpdated : EventHandler&lt;/div&gt;" style="text;strokeColor=none;fillColor=none;align=left;verticalAlign=top;spacingLeft=4;spacingRight=4;overflow=hidden;rotatable=0;points=[[0,0.5],[1,0.5]];portConstraint=eastwest;whiteSpace=wrap;html=1;" vertex="1" parent="mFlbzCgezlxG9buVJFyA-16">
          <mxGeometry y="30" width="200" height="170" as="geometry" />
        </mxCell>
        <mxCell id="mFlbzCgezlxG9buVJFyA-18" value="" style="line;strokeWidth=1;fillColor=none;align=left;verticalAlign=middle;spacingTop=-1;spacingLeft=3;spacingRight=3;rotatable=0;labelPosition=right;points=[];portConstraint=eastwest;strokeColor=inherit;" vertex="1" parent="mFlbzCgezlxG9buVJFyA-16">
          <mxGeometry y="200" width="200" height="8" as="geometry" />
        </mxCell>
        <mxCell id="mFlbzCgezlxG9buVJFyA-19" value="+ GameFinished(didWin : bool)&lt;div&gt;+ Awake()&lt;/div&gt;&lt;div&gt;+ OnApplicationQuit()&lt;/div&gt;" style="text;strokeColor=none;fillColor=none;align=left;verticalAlign=top;spacingLeft=4;spacingRight=4;overflow=hidden;rotatable=0;points=[[0,0.5],[1,0.5]];portConstraint=eastwest;whiteSpace=wrap;html=1;" vertex="1" parent="mFlbzCgezlxG9buVJFyA-16">
          <mxGeometry y="208" width="200" height="52" as="geometry" />
        </mxCell>
        <mxCell id="mFlbzCgezlxG9buVJFyA-20" value="" style="endArrow=block;html=1;rounded=0;entryX=0;entryY=0.25;entryDx=0;entryDy=0;endFill=0;endSize=12;exitX=0.5;exitY=0;exitDx=0;exitDy=0;" edge="1" parent="1" source="mFlbzCgezlxG9buVJFyA-16" target="kG6my6M07rs6njIQ6F8--1">
          <mxGeometry width="50" height="50" relative="1" as="geometry">
            <mxPoint x="120" y="130" as="sourcePoint" />
            <mxPoint x="220" y="60" as="targetPoint" />
            <Array as="points">
              <mxPoint x="120" y="63" />
            </Array>
          </mxGeometry>
        </mxCell>
      </root>
    </mxGraphModel>
  </diagram>
  <diagram id="JZDTNC0S8WgSoHYogpsz" name="MenuControllers">
    <mxGraphModel dx="989" dy="582" grid="1" gridSize="10" guides="1" tooltips="1" connect="1" arrows="1" fold="1" page="1" pageScale="1" pageWidth="827" pageHeight="1169" math="0" shadow="0">
      <root>
        <mxCell id="0" />
        <mxCell id="1" parent="0" />
        <mxCell id="3f5d-1feQ9URVtcHqoIa-1" value="&lt;div&gt;&lt;span style=&quot;font-weight: normal;&quot;&gt;&lt;i&gt;&amp;lt;&amp;lt;abstract&amp;gt;&amp;gt;&lt;/i&gt;&lt;/span&gt;&lt;/div&gt;MenuControllerBase&amp;lt;T&amp;gt;" style="swimlane;fontStyle=1;align=center;verticalAlign=top;childLayout=stackLayout;horizontal=1;startSize=40;horizontalStack=0;resizeParent=1;resizeParentMax=0;resizeLast=0;collapsible=1;marginBottom=0;whiteSpace=wrap;html=1;fillColor=light-dark(#4472c4, #8f8f8f);" vertex="1" parent="1">
          <mxGeometry x="260" y="20" width="295" height="130" as="geometry" />
        </mxCell>
        <mxCell id="3f5d-1feQ9URVtcHqoIa-2" value="# menuParent : GameObject&lt;div&gt;# screenStack : Stack&amp;lt;ScreenType&amp;gt; { readonly }&lt;/div&gt;" style="text;strokeColor=none;fillColor=none;align=left;verticalAlign=top;spacingLeft=4;spacingRight=4;overflow=hidden;rotatable=0;points=[[0,0.5],[1,0.5]];portConstraint=eastwest;whiteSpace=wrap;html=1;" vertex="1" parent="3f5d-1feQ9URVtcHqoIa-1">
          <mxGeometry y="40" width="295" height="40" as="geometry" />
        </mxCell>
        <mxCell id="3f5d-1feQ9URVtcHqoIa-3" value="" style="line;strokeWidth=1;fillColor=none;align=left;verticalAlign=middle;spacingTop=-1;spacingLeft=3;spacingRight=3;rotatable=0;labelPosition=right;points=[];portConstraint=eastwest;strokeColor=inherit;" vertex="1" parent="3f5d-1feQ9URVtcHqoIa-1">
          <mxGeometry y="80" width="295" height="8" as="geometry" />
        </mxCell>
        <mxCell id="3f5d-1feQ9URVtcHqoIa-4" value="# ChangeScreen(type : ScreenType)&lt;div&gt;+ Back()&lt;/div&gt;" style="text;strokeColor=none;fillColor=none;align=left;verticalAlign=top;spacingLeft=4;spacingRight=4;overflow=hidden;rotatable=0;points=[[0,0.5],[1,0.5]];portConstraint=eastwest;whiteSpace=wrap;html=1;" vertex="1" parent="3f5d-1feQ9URVtcHqoIa-1">
          <mxGeometry y="88" width="295" height="42" as="geometry" />
        </mxCell>
        <mxCell id="3f5d-1feQ9URVtcHqoIa-5" value="&lt;div&gt;LobbyController&lt;/div&gt;" style="swimlane;fontStyle=1;align=center;verticalAlign=top;childLayout=stackLayout;horizontal=1;startSize=30;horizontalStack=0;resizeParent=1;resizeParentMax=0;resizeLast=0;collapsible=1;marginBottom=0;whiteSpace=wrap;html=1;fillColor=light-dark(#4472c4, #8f8f8f);" vertex="1" parent="1">
          <mxGeometry x="30" y="200" width="250" height="380" as="geometry" />
        </mxCell>
        <mxCell id="3f5d-1feQ9URVtcHqoIa-6" value="- hostNameDisplay : TMP_Text&lt;div&gt;- exitButton : Button&lt;/div&gt;&lt;div&gt;- playerNameList : GameObject&lt;/div&gt;&lt;div&gt;- playerObjectPrefab : LobbyPlayerObject&lt;/div&gt;&lt;div&gt;&lt;br&gt;&lt;/div&gt;&lt;div&gt;- clientsDisplayed : List&amp;lt;LobbyPlayerObject&amp;gt;&lt;/div&gt;&lt;div&gt;&lt;br&gt;&lt;/div&gt;" style="text;strokeColor=none;fillColor=none;align=left;verticalAlign=top;spacingLeft=4;spacingRight=4;overflow=hidden;rotatable=0;points=[[0,0.5],[1,0.5]];portConstraint=eastwest;whiteSpace=wrap;html=1;" vertex="1" parent="3f5d-1feQ9URVtcHqoIa-5">
          <mxGeometry y="30" width="250" height="170" as="geometry" />
        </mxCell>
        <mxCell id="3f5d-1feQ9URVtcHqoIa-7" value="" style="line;strokeWidth=1;fillColor=none;align=left;verticalAlign=middle;spacingTop=-1;spacingLeft=3;spacingRight=3;rotatable=0;labelPosition=right;points=[];portConstraint=eastwest;strokeColor=inherit;" vertex="1" parent="3f5d-1feQ9URVtcHqoIa-5">
          <mxGeometry y="200" width="250" height="8" as="geometry" />
        </mxCell>
        <mxCell id="3f5d-1feQ9URVtcHqoIa-8" value="&lt;div&gt;- UpdateClientList(s : Object, ea : EventArgs)&lt;/div&gt;&lt;div&gt;&lt;br&gt;&lt;/div&gt;&lt;div&gt;&lt;br&gt;&lt;/div&gt;&lt;div&gt;&lt;br&gt;&lt;/div&gt;&lt;div&gt;&lt;i&gt;&amp;lt;Rpc&amp;gt;&lt;/i&gt;&lt;/div&gt;&lt;div&gt;&lt;i&gt;&lt;br&gt;&lt;/i&gt;&lt;/div&gt;&lt;div&gt;&lt;i&gt;&amp;lt;Unity message&amp;gt;&lt;/i&gt;&lt;/div&gt;- Awake()" style="text;strokeColor=none;fillColor=none;align=left;verticalAlign=top;spacingLeft=4;spacingRight=4;overflow=hidden;rotatable=0;points=[[0,0.5],[1,0.5]];portConstraint=eastwest;whiteSpace=wrap;html=1;" vertex="1" parent="3f5d-1feQ9URVtcHqoIa-5">
          <mxGeometry y="208" width="250" height="172" as="geometry" />
        </mxCell>
        <mxCell id="3f5d-1feQ9URVtcHqoIa-9" value="" style="endArrow=block;html=1;rounded=0;entryX=0;entryY=0.25;entryDx=0;entryDy=0;endFill=0;endSize=12;exitX=0.5;exitY=0;exitDx=0;exitDy=0;" edge="1" parent="1" source="3f5d-1feQ9URVtcHqoIa-5" target="3f5d-1feQ9URVtcHqoIa-1">
          <mxGeometry width="50" height="50" relative="1" as="geometry">
            <mxPoint x="130" y="170" as="sourcePoint" />
            <mxPoint x="230" y="100" as="targetPoint" />
            <Array as="points">
              <mxPoint x="155" y="53" />
            </Array>
          </mxGeometry>
        </mxCell>
      </root>
    </mxGraphModel>
  </diagram>
</mxfile>
